<svg width="32" height="32" viewBox="0 0 32 32" fill="none" xmlns="http://www.w3.org/2000/svg">
<g clip-path="url(#clip0_5_3)">
<path d="M22.1538 11.0769V18.4615C22.1538 18.788 22.0242 19.101 21.7934 19.3318C21.5626 19.5626 21.2495 19.6923 20.9231 19.6923C20.5967 19.6923 20.2836 19.5626 20.0528 19.3318C19.822 19.101 19.6923 18.788 19.6923 18.4615V14.0477L11.9477 21.7938C11.8333 21.9082 11.6976 21.9989 11.5482 22.0608C11.3988 22.1227 11.2386 22.1545 11.0769 22.1545C10.9152 22.1545 10.7551 22.1227 10.6057 22.0608C10.4563 21.9989 10.3205 21.9082 10.2062 21.7938C10.0918 21.6795 10.0011 21.5437 9.93921 21.3943C9.87733 21.2449 9.84547 21.0848 9.84547 20.9231C9.84547 20.7614 9.87733 20.6012 9.93921 20.4518C10.0011 20.3024 10.0918 20.1667 10.2062 20.0523L17.9523 12.3077H13.5385C13.212 12.3077 12.899 12.178 12.6682 11.9472C12.4374 11.7164 12.3077 11.4033 12.3077 11.0769C12.3077 10.7505 12.4374 10.4374 12.6682 10.2066C12.899 9.97582 13.212 9.84615 13.5385 9.84615H20.9231C21.2495 9.84615 21.5626 9.97582 21.7934 10.2066C22.0242 10.4374 22.1538 10.7505 22.1538 11.0769ZM32 16C32 19.1645 31.0616 22.2579 29.3035 24.8891C27.5454 27.5203 25.0466 29.5711 22.1229 30.7821C19.1993 31.9931 15.9823 32.3099 12.8786 31.6926C9.77486 31.0752 6.92394 29.5513 4.6863 27.3137C2.44866 25.0761 0.924806 22.2251 0.307443 19.1214C-0.309921 16.0177 0.00693255 12.8007 1.21793 9.87706C2.42894 6.95345 4.4797 4.45459 7.11088 2.69649C9.74207 0.938383 12.8355 0 16 0C20.2421 0.00447972 24.3091 1.69163 27.3088 4.69124C30.3084 7.69085 31.9955 11.7579 32 16ZM29.5385 16C29.5385 13.3223 28.7444 10.7048 27.2568 8.47843C25.7692 6.25204 23.6548 4.51679 21.1809 3.49209C18.7071 2.4674 15.985 2.19929 13.3588 2.72168C10.7326 3.24406 8.32026 4.53347 6.42687 6.42686C4.53348 8.32025 3.24407 10.7326 2.72168 13.3588C2.1993 15.985 2.4674 18.7071 3.4921 21.1809C4.51679 23.6548 6.25205 25.7692 8.47844 27.2568C10.7048 28.7444 13.3223 29.5385 16 29.5385C19.5894 29.5344 23.0306 28.1067 25.5686 25.5686C28.1067 23.0306 29.5344 19.5894 29.5385 16Z" fill="#39545E"/>
</g>
<defs>
<clipPath id="clip0_5_3">
<rect width="32" height="32" fill="white"/>
</clipPath>
</defs>
</svg>
