<svg width="56" height="56" viewBox="0 0 56 56" fill="none" xmlns="http://www.w3.org/2000/svg">
<rect width="56" height="56" rx="8" fill="#D5D5D5"/>
<g clip-path="url(#clip0_5_13)">
<path d="M39.3137 16.6863C36.3131 13.6857 32.2435 12 28 12C23.7565 12 19.6869 13.6857 16.6863 16.6863C13.6857 19.6869 12 23.7565 12 28C12 32.2435 13.6857 36.3131 16.6863 39.3137C19.6869 42.3143 23.7565 44 28 44C32.2435 44 36.3131 42.3143 39.3137 39.3137C42.3143 36.3131 44 32.2435 44 28C44 23.7565 42.3143 19.6869 39.3137 16.6863ZM37.5737 18.4278C38.2048 19.0616 38.7717 19.7563 39.266 20.5016L34.0845 26.6154L29.7892 14.5817C32.7382 14.9669 35.476 16.3196 37.5737 18.4278ZM32.2446 28.7692L29.4508 32.0569L25.2062 31.2877L23.7554 27.2308L26.5492 23.9431L30.7938 24.7123L32.2446 28.7692ZM18.4263 18.4278C20.7507 16.0908 23.853 14.6897 27.1431 14.4909L29.8369 22.0293L17.2771 19.7416C17.6315 19.2794 18.0153 18.8406 18.4263 18.4278ZM15.4848 33.1599C14.7544 31.3764 14.4114 29.4581 14.4785 27.532C14.5456 25.6059 15.0213 23.7161 15.874 21.9878L23.7524 23.4262L15.4848 33.1599ZM18.4263 37.5722C17.7952 36.9384 17.2283 36.2437 16.734 35.4984L21.9155 29.3846L26.2108 41.4121C23.2626 41.0286 20.5248 39.6781 18.4263 37.5722ZM37.5737 37.5722C35.2493 39.9092 32.147 41.3103 28.8569 41.5091L26.1631 33.9707L38.7229 36.2645C38.3683 36.7246 37.9845 37.1614 37.5737 37.5722ZM32.2476 32.5738L40.5152 22.8401C41.2456 24.6236 41.5886 26.5419 41.5215 28.468C41.4544 30.3941 40.9787 32.2839 40.126 34.0122L32.2476 32.5738Z" fill="#39545E"/>
</g>
<defs>
<clipPath id="clip0_5_13">
<rect width="32" height="32" fill="white" transform="translate(12 12)"/>
</clipPath>
</defs>
</svg>
